<svg width="18" height="19" viewBox="0 0 18 19" fill="none" xmlns="http://www.w3.org/2000/svg">
  <path d="M15.0844 12.0072H14.9951L14.0187 9.72994C14.1843 9.80249 14.3627 9.84111 14.5434 9.84353C14.6152 9.84353 14.684 9.81504 14.7347 9.76432C14.7854 9.7136 14.8139 9.6448 14.8139 9.57307V7.4094C14.8139 7.33767 14.7854 7.26887 14.7347 7.21815C14.684 7.16743 14.6152 7.13894 14.5434 7.13894C14.2618 7.14046 13.9876 7.2299 13.7593 7.39475C13.5309 7.55961 13.3597 7.79165 13.2696 8.0585C13.19 7.94739 13.0884 7.8538 12.9712 7.78355C12.854 7.7133 12.7235 7.66788 12.588 7.65011C12.4162 7.62791 12.2418 7.63893 12.0741 7.68256H11.8388C11.3818 7.68256 11.1789 7.4121 10.8598 6.97125L10.7002 6.74677C10.8639 6.73842 11.0225 6.68712 11.16 6.59802C11.2644 6.52227 11.3527 6.42664 11.42 6.31664C11.4873 6.20664 11.5322 6.08443 11.5522 5.95703C11.6401 5.90639 11.7169 5.83866 11.7783 5.75783C11.8396 5.67701 11.8841 5.58473 11.9092 5.48643C11.9206 5.4089 11.913 5.32975 11.8871 5.25579C11.8612 5.18183 11.8177 5.11526 11.7604 5.06181C11.65 4.87273 11.5895 4.65866 11.5846 4.43975C11.6544 4.43557 11.7199 4.4045 11.7673 4.35306C11.8147 4.30162 11.8404 4.23382 11.8388 4.16388C11.8389 3.87722 11.7819 3.59342 11.6713 3.32895C11.5608 3.06448 11.3987 2.82463 11.1946 2.62332C10.9906 2.42201 10.7485 2.26326 10.4826 2.15629C10.2166 2.04932 9.93205 1.99626 9.64542 2.0002C9.08293 2.01128 8.54657 2.23966 8.14876 2.63747C7.75094 3.03528 7.52256 3.57165 7.51149 4.13413C7.50643 4.4209 7.55887 4.70577 7.66571 4.97194C7.77255 5.23811 7.93162 5.48018 8.13355 5.68386C8.19339 5.74334 8.2566 5.79933 8.32287 5.85155C7.2789 6.10578 6.72986 7.08485 6.44858 7.93409C6.36855 7.85344 6.27332 7.78944 6.16841 7.74581C6.06349 7.70217 5.95097 7.67976 5.83735 7.67986H2.96506C2.82083 7.67962 2.67885 7.71565 2.55218 7.78466C2.42552 7.85366 2.31825 7.95341 2.24023 8.07473C2.20114 8.13498 2.18758 8.2083 2.20255 8.27854C2.21751 8.34879 2.25976 8.41022 2.32002 8.44931C2.38027 8.48841 2.45359 8.50196 2.52384 8.487C2.59408 8.47204 2.65551 8.42978 2.6946 8.36953C2.72375 8.32438 2.76381 8.28733 2.81109 8.2618C2.85837 8.23627 2.91133 8.22309 2.96506 8.22348H3.4546V9.03486C3.4546 9.10659 3.48309 9.17538 3.53381 9.2261C3.58453 9.27682 3.65333 9.30532 3.72506 9.30532H5.07735C5.14908 9.30532 5.21788 9.27682 5.2686 9.2261C5.31932 9.17538 5.34781 9.10659 5.34781 9.03486V8.22078H5.83735C5.87961 8.22078 5.92146 8.2291 5.96051 8.24527C5.99956 8.26145 6.03504 8.28516 6.06493 8.31504C6.09481 8.34493 6.11852 8.38041 6.13469 8.41946C6.15087 8.4585 6.15919 8.50036 6.15919 8.54262V10.6062C6.15848 10.6911 6.12426 10.7723 6.06397 10.8321C6.00369 10.8918 5.92224 10.9254 5.83735 10.9254H2.96506C2.88761 10.9275 2.81206 10.9012 2.75274 10.8513C2.69342 10.8015 2.65445 10.7316 2.64322 10.6549H3.18414C3.25587 10.6549 3.32466 10.6264 3.37538 10.5757C3.4261 10.525 3.4546 10.4562 3.4546 10.3845C3.4546 10.3127 3.4261 10.2439 3.37538 10.1932C3.32466 10.1425 3.25587 10.114 3.18414 10.114H2.64322V9.57307H2.91368C2.98541 9.57307 3.0542 9.54458 3.10492 9.49386C3.15564 9.44314 3.18414 9.37434 3.18414 9.30261C3.18414 9.23088 3.15564 9.16209 3.10492 9.11137C3.0542 9.06065 2.98541 9.03215 2.91368 9.03215H1.56138C1.48965 9.03215 1.42086 9.06065 1.37014 9.11137C1.31941 9.16209 1.29092 9.23088 1.29092 9.30261C1.29092 9.37434 1.31941 9.44314 1.37014 9.49386C1.42086 9.54458 1.48965 9.57307 1.56138 9.57307H2.1023V10.114H1.02046C0.948729 10.114 0.879937 10.1425 0.829216 10.1932C0.778495 10.2439 0.75 10.3127 0.75 10.3845C0.75 10.4562 0.778495 10.525 0.829216 10.5757C0.879937 10.6264 0.948729 10.6549 1.02046 10.6549H2.1023C2.11472 10.874 2.21042 11.0801 2.36981 11.2309C2.52919 11.3817 2.74021 11.466 2.95966 11.4663H4.31195C4.1868 11.589 4.0802 11.7293 3.99552 11.8828C3.63434 12.5911 3.44882 13.3758 3.4546 14.1709C3.4546 14.2426 3.48309 14.3114 3.53381 14.3621C3.58453 14.4129 3.65333 14.4413 3.72506 14.4413H4.55537C4.62458 14.9611 4.88021 15.4381 5.27471 15.7835C5.66921 16.129 6.17574 16.3194 6.70011 16.3194C7.22448 16.3194 7.73101 16.129 8.12551 15.7835C8.52002 15.4381 8.77564 14.9611 8.84486 14.4413H12.9396C12.9917 14.8546 13.1619 15.244 13.4298 15.5628C13.6977 15.8817 14.052 16.1164 14.4501 16.2389C14.8481 16.3614 15.2731 16.3664 15.6739 16.2533C16.0747 16.1401 16.4344 15.9138 16.7097 15.6013C16.9851 15.2888 17.1644 14.9035 17.2261 14.4916C17.2878 14.0797 17.2294 13.6588 17.0578 13.2793C16.8862 12.8998 16.6087 12.578 16.2586 12.3523C15.9086 12.1267 15.5008 12.0068 15.0844 12.0072ZM4.80689 8.76169H3.99552V8.22078H4.80689V8.76169ZM14.273 7.72583V9.25664C14.1145 9.20088 13.9772 9.09731 13.8801 8.96021C13.783 8.82311 13.7309 8.65924 13.7309 8.49123C13.7309 8.32323 13.783 8.15936 13.8801 8.02226C13.9772 7.88516 14.1145 7.78159 14.273 7.72583ZM12.5096 8.18291C12.6156 8.19878 12.7141 8.24708 12.7916 8.32117C12.8691 8.39526 12.9217 8.49151 12.9423 8.59671L13.0126 8.76169C12.6361 8.95527 12.216 9.04842 11.7929 9.03215C11.7556 8.87149 11.7751 8.70288 11.8481 8.55497C11.9211 8.40707 12.043 8.28898 12.1931 8.22078C12.2951 8.18769 12.4028 8.17573 12.5096 8.18562V8.18291ZM11.1762 5.54323C11.1312 5.56591 11.0934 5.60072 11.0671 5.64373C11.0409 5.68674 11.0271 5.73623 11.0275 5.78664C11.0255 5.85473 11.0093 5.92165 10.9799 5.98312C10.9506 6.04459 10.9088 6.09927 10.8571 6.14365C10.7029 6.24642 10.4162 6.22208 10.0457 6.07603C10.0259 6.07384 10.006 6.07384 9.9862 6.07603L9.94563 6.04087V5.00501C9.94563 4.85366 10.0058 4.70851 10.1128 4.60149C10.2198 4.49446 10.3649 4.43434 10.5163 4.43434H11.0275C11.036 4.78444 11.1459 5.12455 11.3439 5.4134C11.295 5.46574 11.2384 5.51042 11.1762 5.54593V5.54323ZM8.05241 4.13954C8.06594 3.71991 8.23868 3.32115 8.53556 3.02427C8.83244 2.72739 9.23119 2.55465 9.65083 2.54112H9.67517C10.0588 2.54087 10.4302 2.67657 10.7233 2.92414C11.0164 3.1717 11.2123 3.51512 11.2763 3.89342H10.5163C10.2217 3.89414 9.93938 4.01148 9.73107 4.21979C9.52276 4.4281 9.40542 4.71042 9.40471 5.00501V5.765C9.0227 5.70047 8.67639 5.5014 8.42837 5.20378C8.18035 4.90616 8.047 4.52962 8.05241 4.14224V4.13954ZM8.86379 6.32756C9.74819 6.32756 10.0727 6.79004 10.4162 7.27687C10.6651 7.63388 10.9571 8.02334 11.444 8.16127C11.2908 8.40871 11.2216 8.69895 11.2465 8.98888C10.9109 8.91555 10.5942 8.77274 10.3171 8.56964C10.0399 8.36655 9.80836 8.10767 9.6373 7.80968C9.62257 7.77393 9.60034 7.74176 9.57212 7.71533C9.5439 7.6889 9.51033 7.66883 9.4737 7.65647C9.43706 7.64412 9.3982 7.63976 9.35974 7.64369C9.32127 7.64762 9.2841 7.65976 9.25072 7.67928C9.21735 7.6988 9.18854 7.72524 9.16625 7.75684C9.14396 7.78843 9.12871 7.82444 9.12152 7.86243C9.11432 7.90042 9.11536 7.93951 9.12455 7.97706C9.13375 8.01462 9.15089 8.04977 9.17482 8.08014C9.27286 8.24466 9.38508 8.40032 9.51019 8.54533L9.48585 8.56155C9.23373 8.85155 9.05638 9.19881 8.96927 9.57307H6.70011V9.30261C6.71904 9.13763 7.02737 6.32756 8.86379 6.32756ZM6.70011 10.6035V10.114H9.13425C9.18834 10.114 10.4865 10.1302 10.4865 11.4663V12.8186H9.40471V12.2777C9.41154 12.0982 9.38124 11.9193 9.3157 11.7522C9.25016 11.585 9.15079 11.4332 9.02383 11.3062C8.89687 11.1793 8.74505 11.0799 8.57789 11.0144C8.41073 10.9488 8.23183 10.9185 8.05241 10.9254H6.63791C6.67921 10.8231 6.70034 10.7138 6.70011 10.6035ZM6.70011 15.7936C6.3169 15.7933 5.9462 15.6573 5.65364 15.4098C5.36109 15.1622 5.16556 14.8192 5.1017 14.4413H5.65614C5.71842 14.6705 5.85438 14.8728 6.04306 15.0171C6.23173 15.1613 6.46262 15.2395 6.70011 15.2395C6.9376 15.2395 7.1685 15.1613 7.35717 15.0171C7.54584 14.8728 7.6818 14.6705 7.74409 14.4413H8.29853C8.23466 14.8192 8.03914 15.1622 7.74658 15.4098C7.45403 15.6573 7.08332 15.7933 6.70011 15.7936ZM6.23492 14.4413H7.1653C7.11741 14.5221 7.04933 14.5889 6.96777 14.6354C6.88621 14.6818 6.79397 14.7062 6.70011 14.7062C6.60625 14.7062 6.51401 14.6818 6.43245 14.6354C6.35089 14.5889 6.28282 14.5221 6.23492 14.4413ZM3.99552 13.9004C4.03002 13.2779 4.19789 12.6701 4.48775 12.1181C4.59541 11.9179 4.75606 11.7512 4.95212 11.6363C5.14818 11.5213 5.37209 11.4625 5.59934 11.4663H8.05241C8.1605 11.4604 8.26861 11.4774 8.36971 11.5161C8.4708 11.5548 8.56261 11.6144 8.63915 11.6909C8.7157 11.7675 8.77526 11.8593 8.81396 11.9604C8.85267 12.0615 8.86964 12.1696 8.86379 12.2777V13.089C8.86379 13.3816 8.95869 13.6663 9.13425 13.9004H3.99552ZM10.2161 13.9004C10.0487 13.9 9.88553 13.8477 9.74899 13.7509C9.61244 13.654 9.50919 13.5173 9.45339 13.3595H10.757C10.8276 13.355 10.8984 13.3652 10.9648 13.3896C11.0312 13.4139 11.0918 13.4519 11.1427 13.501C11.1937 13.5502 11.2338 13.6094 11.2605 13.6749C11.2872 13.7404 11.3 13.8108 11.2979 13.8815C11.2083 13.8935 11.1179 13.8998 11.0275 13.9004H10.2161ZM11.9497 13.584C11.9107 13.6282 11.8661 13.6673 11.8172 13.7003C11.7875 13.4958 11.6959 13.3053 11.5547 13.1545C11.4135 13.0036 11.2295 12.8996 11.0275 12.8565V11.4663C11.0519 11.025 10.9107 10.5905 10.6315 10.2478C10.3524 9.90514 9.95541 9.679 9.5183 9.61364C9.58763 9.37106 9.70642 9.14545 9.86719 8.95102C9.87419 8.94155 9.88051 8.93161 9.88613 8.92127C10.3059 9.26179 10.8111 9.48068 11.3466 9.55414L12.1093 12.87C12.1521 13.1197 12.0948 13.3763 11.9497 13.584ZM12.6502 12.7591L11.9065 9.57307C12.3641 9.57729 12.8163 9.47351 13.2263 9.27016L14.5029 12.2452L13.3237 13.9004H12.3798C12.4985 13.7377 12.5835 13.553 12.63 13.357C12.6764 13.161 12.6833 12.9578 12.6502 12.7591ZM15.0844 13.9004H14.6192C14.6787 13.7973 14.7706 13.7167 14.8806 13.6711C14.9906 13.6256 15.1126 13.6176 15.2276 13.6484C15.3426 13.6792 15.4443 13.7471 15.5168 13.8416C15.5892 13.9361 15.6285 14.0518 15.6285 14.1709C15.6285 14.29 15.5892 14.4057 15.5168 14.5002C15.4443 14.5946 15.3426 14.6626 15.2276 14.6934C15.1126 14.7242 14.9906 14.7162 14.8806 14.6706C14.7706 14.6251 14.6787 14.5445 14.6192 14.4413H15.0844C15.1561 14.4413 15.2249 14.4129 15.2756 14.3621C15.3263 14.3114 15.3548 14.2426 15.3548 14.1709C15.3548 14.0992 15.3263 14.0304 15.2756 13.9796C15.2249 13.9289 15.1561 13.9004 15.0844 13.9004ZM13.9863 13.9004L14.081 13.7679C14.0646 13.8112 14.0511 13.8554 14.0404 13.9004H13.9863ZM15.0844 15.7936C14.7012 15.7933 14.3304 15.6573 14.0379 15.4098C13.7453 15.1622 13.5498 14.8192 13.4859 14.4413H14.0404C14.0996 14.6695 14.2317 14.872 14.4166 15.0182C14.6016 15.1644 14.8291 15.2461 15.0648 15.2511C15.3004 15.256 15.5312 15.1839 15.7221 15.0456C15.913 14.9074 16.0535 14.7105 16.1223 14.4851C16.191 14.2596 16.1843 14.0179 16.1031 13.7966C16.0218 13.5754 15.8706 13.3867 15.6723 13.2593C15.474 13.1319 15.2395 13.0727 15.0045 13.0908C14.7695 13.1089 14.5468 13.2033 14.3703 13.3595L14.9464 12.5481C14.9924 12.5481 15.0384 12.5481 15.0844 12.5481C15.5147 12.5481 15.9275 12.7191 16.2318 13.0234C16.5361 13.3277 16.7071 13.7405 16.7071 14.1709C16.7071 14.6013 16.5361 15.014 16.2318 15.3183C15.9275 15.6227 15.5147 15.7936 15.0844 15.7936Z" fill="#F54749" />
</svg>