<svg width="18" height="19" viewBox="0 0 18 19" fill="none" xmlns="http://www.w3.org/2000/svg">
  <path d="M10.2975 3.13297L11.6175 5.77297C11.7975 6.14047 12.2775 6.49297 12.6825 6.56047L15.075 6.95797C16.605 7.21297 16.965 8.32297 15.8625 9.41797L14.0025 11.278C13.6875 11.593 13.515 12.2005 13.6125 12.6355L14.145 14.938C14.565 16.7605 13.5975 17.4655 11.985 16.513L9.74249 15.1855C9.33749 14.9455 8.66999 14.9455 8.25749 15.1855L6.01499 16.513C4.40999 17.4655 3.43499 16.753 3.85499 14.938L4.38749 12.6355C4.48499 12.2005 4.31249 11.593 3.99749 11.278L2.13749 9.41797C1.04249 8.32297 1.39499 7.21297 2.92499 6.95797L5.31749 6.56047C5.71499 6.49297 6.19499 6.14047 6.37499 5.77297L7.69499 3.13297C8.41499 1.70047 9.58499 1.70047 10.2975 3.13297Z" fill="#F54749" />
</svg>