<svg width="22" height="22" viewBox="0 0 22 22" fill="none" xmlns="http://www.w3.org/2000/svg">
  <path d="M16.66 21.6703C16.13 21.6703 15.45 21.5003 14.6 21.0003L11.61 19.2303C11.3 19.0503 10.7 19.0503 10.4 19.2303L7.4 21.0003C5.63 22.0503 4.59 21.6303 4.12 21.2903C3.66 20.9503 2.94 20.0803 3.41 18.0803L4.12 15.0103C4.2 14.6903 4.04 14.1403 3.8 13.9003L1.32 11.4203C0.0799956 10.1803 0.179996 9.12031 0.349996 8.60031C0.519996 8.08031 1.06 7.16031 2.78 6.87031L5.97 6.34031C6.27 6.29031 6.7 5.97031 6.83 5.70031L8.6 2.17031C9.4 0.560313 10.45 0.320312 11 0.320312C11.55 0.320312 12.6 0.560313 13.4 2.17031L15.16 5.69031C15.3 5.96031 15.73 6.28031 16.03 6.33031L19.22 6.86031C20.95 7.15031 21.49 8.07031 21.65 8.59031C21.81 9.11031 21.91 10.1703 20.68 11.4103L18.2 13.9003C17.96 14.1403 17.81 14.6803 17.88 15.0103L18.59 18.0803C19.05 20.0803 18.34 20.9503 17.88 21.2903C17.63 21.4703 17.23 21.6703 16.66 21.6703ZM11 17.5903C11.49 17.5903 11.98 17.7103 12.37 17.9403L15.36 19.7103C16.23 20.2303 16.78 20.2303 16.99 20.0803C17.2 19.9303 17.35 19.4003 17.13 18.4203L16.42 15.3503C16.23 14.5203 16.54 13.4503 17.14 12.8403L19.62 10.3603C20.11 9.87031 20.33 9.39031 20.23 9.06031C20.12 8.73031 19.66 8.46031 18.98 8.35031L15.79 7.82031C15.02 7.69031 14.18 7.07031 13.83 6.37031L12.07 2.85031C11.75 2.21031 11.35 1.83031 11 1.83031C10.65 1.83031 10.25 2.21031 9.94 2.85031L8.17 6.37031C7.82 7.07031 6.98 7.69031 6.21 7.82031L3.03 8.35031C2.35 8.46031 1.89 8.73031 1.78 9.06031C1.67 9.39031 1.9 9.88031 2.39 10.3603L4.87 12.8403C5.47 13.4403 5.78 14.5203 5.59 15.3503L4.88 18.4203C4.65 19.4103 4.81 19.9303 5.02 20.0803C5.23 20.2303 5.77 20.2203 6.65 19.7103L9.64 17.9403C10.02 17.7103 10.51 17.5903 11 17.5903Z" fill="#FFC560" />
</svg>